<svg xmlns="http://www.w3.org/2000/svg" width="320" height="180" viewBox="0 0 320 180" fill="none">
  <rect width="320" height="180" fill="#f8fafc"/>
  <rect x="28" y="22" width="264" height="136" rx="4" fill="#fff" stroke="#e2e8f0"/>
  <rect x="40" y="36" width="140" height="10" rx="2" fill="#1e293b"/>
  <rect x="40" y="54" width="220" height="5" rx="1" fill="#94a3b8"/>
  <rect x="40" y="64" width="200" height="4" rx="1" fill="#cbd5e1"/>
  <rect x="40" y="82" width="72" height="4" rx="1" fill="#0f172a"/>
  <rect x="40" y="92" width="230" height="3" rx="1" fill="#e2e8f0"/>
  <rect x="40" y="100" width="210" height="3" rx="1" fill="#e2e8f0"/>
  <rect x="40" y="116" width="72" height="4" rx="1" fill="#0f172a"/>
  <rect x="40" y="126" width="240" height="3" rx="1" fill="#e2e8f0"/>
  <rect x="44" y="133" width="4" height="4" rx="1" fill="#64748b"/>
  <rect x="52" y="132" width="200" height="3" rx="1" fill="#e2e8f0"/>
  <rect x="40" y="148" width="56" height="4" rx="1" fill="#0f172a"/>
  <rect x="40" y="158" width="200" height="3" rx="1" fill="#e2e8f0"/>
</svg>
