<svg xmlns="http://www.w3.org/2000/svg" width="320" height="180" viewBox="0 0 320 180" fill="none">
  <rect width="320" height="180" fill="#f1f5f9"/>
  <rect x="24" y="20" width="272" height="140" rx="6" fill="#fff" stroke="#e2e8f0"/>
  <rect x="24" y="20" width="88" height="140" fill="#0f7669"/>
  <rect x="32" y="32" width="56" height="8" rx="2" fill="#fff" opacity=".95"/>
  <rect x="32" y="52" width="48" height="4" rx="1" fill="#fff" opacity=".55"/>
  <rect x="32" y="62" width="64" height="3" rx="1" fill="#fff" opacity=".45"/>
  <rect x="32" y="68" width="60" height="3" rx="1" fill="#fff" opacity=".45"/>
  <rect x="32" y="88" width="50" height="3" rx="1" fill="#fff" opacity=".5"/>
  <rect x="32" y="96" width="64" height="3" rx="1" fill="#fff" opacity=".4"/>
  <rect x="120" y="32" width="160" height="7" rx="2" fill="#0f7669"/>
  <rect x="120" y="48" width="120" height="4" rx="1" fill="#94a3b8"/>
  <rect x="120" y="64" width="150" height="5" rx="1" fill="#e2e8f0"/>
  <rect x="120" y="76" width="140" height="5" rx="1" fill="#e2e8f0"/>
  <rect x="120" y="96" width="80" height="4" rx="1" fill="#cbd5e1"/>
  <rect x="120" y="108" width="160" height="4" rx="1" fill="#e2e8f0"/>
  <rect x="120" y="118" width="150" height="4" rx="1" fill="#e2e8f0"/>
</svg>
